HIERARCHY
ROOT reference
{
  OFFSET 0 0 0
  CHANNELS 6 Xposition Yposition Zposition Zrotation Xrotation Yrotation
  JOINT Hips
  {
    OFFSET 37.0141 93.06 75.8012
    CHANNELS 6 Xposition Yposition Zposition Zrotation Xrotation Yrotation
    JOINT Spine
    {
      OFFSET 0 8.22665 0
      CHANNELS 6 Xposition Yposition Zposition Zrotation Xrotation Yrotation
      JOINT Spine1
      {
        OFFSET 0 24.451 0
        CHANNELS 6 Xposition Yposition Zposition Zrotation Xrotation Yrotation
        JOINT Neck
        {
          OFFSET 0 24.3506 2.21369
          CHANNELS 6 Xposition Yposition Zposition Zrotation Xrotation Yrotation
          JOINT Head
          {
            OFFSET 0 14.0455 -2.0065
            CHANNELS 6 Xposition Yposition Zposition Zrotation Xrotation Yrotation
            End Site
            {
              OFFSET 0 25.0812 0
            }
          }
        }
        JOINT LeftShoulder
        {
          OFFSET 4.0594 22.2558 -0.272799
          CHANNELS 6 Xposition Yposition Zposition Zrotation Xrotation Yrotation
          JOINT LeftArm
          {
            OFFSET 12.0298 0 0
            CHANNELS 6 Xposition Yposition Zposition Zrotation Xrotation Yrotation
            JOINT LeftForeArm
            {
              OFFSET 31.2689 0 0
              CHANNELS 6 Xposition Yposition Zposition Zrotation Xrotation Yrotation
              JOINT LeftHand
              {
                OFFSET 28.0275 0 0
                CHANNELS 6 Xposition Yposition Zposition Zrotation Xrotation Yrotation
                End Site
                {
                  OFFSET 15.0487 0 0
                }
              }
            }
          }
        }
        JOINT RightShoulder
        {
          OFFSET -3.96464 22.2558 -0.272799
          CHANNELS 6 Xposition Yposition Zposition Zrotation Xrotation Yrotation
          JOINT RightArm
          {
            OFFSET -12.0298 0 0
            CHANNELS 6 Xposition Yposition Zposition Zrotation Xrotation Yrotation
            JOINT RightForeArm
            {
              OFFSET -31.2689 0 0
              CHANNELS 6 Xposition Yposition Zposition Zrotation Xrotation Yrotation
              JOINT RightHand
              {
                OFFSET -28.0275 0 0
                CHANNELS 6 Xposition Yposition Zposition Zrotation Xrotation Yrotation
                End Site
                {
                  OFFSET -15.0487 0 0
                }
              }
            }
          }
        }
      }
    }
    JOINT LeftUpLeg
    {
      OFFSET 10.0325 0 0
      CHANNELS 6 Xposition Yposition Zposition Zrotation Xrotation Yrotation
      JOINT LeftLeg
      {
        OFFSET 0 -38.4033 0
        CHANNELS 6 Xposition Yposition Zposition Zrotation Xrotation Yrotation
        JOINT LeftFoot
        {
          OFFSET 0 -44.1642 0
          CHANNELS 6 Xposition Yposition Zposition Zrotation Xrotation Yrotation
          JOINT LeftToeBase
          {
            OFFSET 0 -6.52112 15.0487
            CHANNELS 6 Xposition Yposition Zposition Zrotation Xrotation Yrotation
            End Site
            {
              OFFSET 0 0 4.013
            }
          }
        }
      }
    }
    JOINT RightUpLeg
    {
      OFFSET -10.0325 0 0
      CHANNELS 6 Xposition Yposition Zposition Zrotation Xrotation Yrotation
      JOINT RightLeg
      {
        OFFSET 0 -38.4033 0
        CHANNELS 6 Xposition Yposition Zposition Zrotation Xrotation Yrotation
        JOINT RightFoot
        {
          OFFSET 0 -44.1642 0
          CHANNELS 6 Xposition Yposition Zposition Zrotation Xrotation Yrotation
          JOINT RightToeBase
          {
            OFFSET 0 -6.52112 15.0487
            CHANNELS 6 Xposition Yposition Zposition Zrotation Xrotation Yrotation
            End Site
            {
              OFFSET 0 0 4.013
            }
          }
        }
      }
    }
  }
}
MOTION
Frames:	9
Frame Time:	0.004
0 0 0 0 0 -0 25.3507 87.8638 -117.035 -10.3721 2.75741 -94.4921 0 8.22665 1.77636e-015 -0.532697 4.06642 -1.44013 1.42109e-014 24.451 -1.77636e-015 11.3687 6.43971 -2.10071 0 24.3506 2.21369 7.90426 31.715 16.0812 7.10543e-015 14.0455 -2.0065 -26.1572 1.81495 14.7305 4.0594 22.2558 -0.272799 13.7708 11.5465 9.75903 12.0298 0 7.10543e-015 -45.1297 34.5932 4.96454 31.2689 2.13163e-014 1.42109e-014 -1.07184 -13.9704 1.15271 28.0275 1.42109e-014 0 31.599 -14.0889 -0.469714 -3.96464 22.2558 -0.272799 -21.1487 4.02473 -7.30253 -12.0298 -1.42109e-014 0 2.07325 34.4296 16.3364 -31.2689 0 0 5.42089 3.9515 -5.54387 -28.0275 0 1.42109e-014 -17.0224 3.46914 4.98143 10.0325 0 1.77636e-015 2.05939 12.979 -3.23423 0 -38.4033 -1.77636e-015 -4.54742 15.5458 -5.37402 0 -44.1642 3.55271e-015 3.86668 -14.2635 19.3259 0 -6.52112 15.0487 5.96354e-016 -4.96962e-017 -0 -10.0325 1.42109e-014 3.55271e-015 -6.77896 -10.4039 -4.71084 2.84217e-014 -38.4033 0 4.6358 46.8737 -3.45858 0 -44.1642 3.55271e-015 14.2068 -6.92593 0.312758 0 -6.52112 15.0487 1.59028e-015 -4.37326e-015 -0 
0 0 0 0 0 -0 25.3738 87.876 -116.931 -10.3272 2.72029 -94.3602 -1.42109e-014 8.22665 -3.55271e-015 -0.636413 4.03552 -1.52744 -1.42109e-014 24.451 1.77636e-015 11.6611 6.49459 -2.21375 0 24.3506 2.21369 7.89567 31.663 16.1216 1.42109e-014 14.0455 -2.0065 -26.4247 1.85916 14.7438 4.0594 22.2558 -0.272799 13.844 11.5852 9.70943 12.0298 5.68434e-014 7.10543e-015 -45.4727 34.7008 5.20142 31.2689 0 1.42109e-014 -1.12909 -14.011 1.06265 28.0275 1.42109e-014 1.42109e-014 31.4394 -14.0975 -0.354149 -3.96464 22.2558 -0.272799 -21.0982 3.95952 -7.42333 -12.0298 -4.26326e-014 7.10543e-015 1.87983 34.1015 16.4552 -31.2689 0 0 5.42371 3.95315 -5.62002 -28.0275 1.42109e-014 -1.42109e-014 -17.1638 3.49326 4.81584 10.0325 -2.84217e-014 -1.77636e-015 2.02085 12.9128 -3.18159 0 -38.4033 -1.77636e-015 -4.53511 15.5154 -5.53891 0 -44.1642 0 3.84492 -14.214 19.2799 -1.42109e-014 -6.52112 15.0487 1.98785e-016 1.73937e-016 -7.95139e-016 -10.0325 0 0 -6.54325 -10.3685 -4.85229 2.84217e-014 -38.4033 -3.55271e-015 4.51593 46.7967 -3.42536 0 -44.1642 3.55271e-015 14.4074 -7.02961 0.89046 0 -6.52112 15.0487 -3.18055e-015 -4.77083e-015 3.18055e-015 
0 0 0 0 0 -0 25.3947 87.8885 -116.825 -10.2977 2.6828 -94.2167 0 8.22665 -1.77636e-015 -0.722449 4.02431 -1.61819 -1.42109e-014 24.451 1.77636e-015 11.918 6.54589 -2.32759 -2.84217e-014 24.3506 2.21369 7.94315 31.5586 16.1629 0 14.0455 -2.0065 -26.713 1.97973 14.778 4.0594 22.2558 -0.272799 13.9252 11.6144 9.66613 12.0298 0 7.10543e-015 -45.7827 34.7924 5.42413 31.2689 -2.13163e-014 -1.42109e-014 -1.19203 -14.0928 0.935772 28.0275 -1.42109e-014 1.42109e-014 31.5789 -14.1752 -0.334817 -3.96464 22.2558 -0.272799 -21.0383 3.88114 -7.55455 -12.0298 0 0 1.68137 33.8268 16.5903 -31.2689 0 -1.42109e-014 5.45119 3.81772 -5.70017 -28.0275 0 0 -17.3629 3.37131 4.70494 10.0325 0 -2.66454e-015 1.96461 12.8579 -3.11366 -1.42109e-014 -38.4033 -1.77636e-015 -4.488 15.5047 -5.75629 1.42109e-014 -44.1642 0 3.82137 -14.164 19.2564 0 -6.52112 15.0487 3.44836e-033 -2.48481e-016 7.95139e-016 -10.0325 -1.42109e-014 1.77636e-015 -6.32509 -10.3019 -4.94408 0 -38.4033 -7.10543e-015 4.45773 46.6884 -3.45073 -2.84217e-014 -44.1642 0 14.6453 -7.14181 1.45345 0 -6.52112 15.0487 0 1.98785e-015 -0 
0 0 0 0 0 -0 25.4121 87.8995 -116.714 -10.2654 2.62828 -94.0582 1.42109e-014 8.22665 -1.77636e-015 -0.80571 3.99745 -1.7073 -1.42109e-014 24.451 -3.55271e-015 12.1493 6.61392 -2.44003 -1.42109e-014 24.3506 2.21369 7.9586 31.4397 16.2009 -1.42109e-014 14.0455 -2.0065 -26.933 2.0735 14.805 4.0594 22.2558 -0.272799 14.0067 11.5185 9.61248 12.0298 0 0 -46.0933 34.9585 5.74275 31.2689 1.42109e-014 0 -1.22282 -14.0624 0.79549 28.0275 -1.42109e-014 2.84217e-014 31.4089 -14.1445 -0.331246 -3.96464 22.2558 -0.272799 -20.9797 3.78619 -7.70123 -12.0298 0 -7.10543e-015 1.49237 33.5165 16.6978 -31.2689 1.42109e-014 0 5.51397 3.70336 -5.72663 -28.0275 0 0 -17.5126 3.27847 4.55273 10.0325 -1.42109e-014 -1.77636e-015 1.88609 12.7998 -3.07631 0 -38.4033 1.77636e-015 -4.44391 15.4807 -5.87453 1.42109e-014 -44.1642 3.55271e-015 3.81152 -14.0914 19.1754 0 -6.52112 15.0487 7.95139e-016 -1.98785e-016 -7.95139e-016 -10.0325 0 0 -6.1427 -10.2193 -4.97314 0 -38.4033 -3.55271e-015 4.50097 46.5487 -3.50928 -2.84217e-014 -44.1642 -7.10543e-015 14.9097 -7.30762 1.92528 0 -6.52112 15.0487 4.77083e-015 -7.95139e-016 1.59028e-015 
0 0 0 0 0 -0 25.4297 87.911 -116.608 -10.2347 2.5859 -93.904 0 8.22665 0 -0.883649 3.99557 -1.79318 0 24.451 -3.55271e-015 12.389 6.63503 -2.54495 0 24.3506 2.21369 7.97321 31.3594 16.2229 -1.42109e-014 14.0455 -2.0065 -27.1519 2.14771 14.8142 4.0594 22.2558 -0.272799 14.0865 11.5416 9.5776 12.0298 0 7.10543e-015 -46.3441 35.0155 5.91924 31.2689 -1.42109e-014 1.42109e-014 -1.24898 -14.0066 0.717488 28.0275 0 1.42109e-014 31.2367 -14.098 -0.365089 -3.96464 22.2558 -0.272799 -20.9388 3.72407 -7.83075 -12.0298 -1.42109e-014 7.10543e-015 1.33987 33.2457 16.8029 -31.2689 1.42109e-014 -2.84217e-014 5.46177 3.8191 -5.85168 -28.0275 0 -1.42109e-014 -17.1504 3.41659 4.52428 10.0325 0 1.77636e-015 1.82788 12.7516 -3.06888 0 -38.4033 1.77636e-015 -4.4216 15.4794 -6.33172 0 -44.1642 0 3.91333 -14.0457 19.48 1.42109e-014 -6.52112 15.0487 3.97569e-016 1.73937e-016 2.38542e-015 -10.0325 0 1.77636e-015 -5.941 -10.1348 -5.15186 0 -38.4033 0 4.36444 46.428 -3.19665 0 -44.1642 3.55271e-015 15.1849 -7.47258 2.27206 2.84217e-014 -6.52112 15.0487 1.10348e-032 3.97569e-016 -1.59028e-015 
0 0 0 0 0 -0 25.4478 87.9187 -116.501 -10.1938 2.53897 -93.7451 0 8.22665 -8.88178e-016 -0.964017 3.98027 -1.88403 0 24.451 -1.77636e-015 12.6289 6.66406 -2.65579 -1.42109e-014 24.3506 2.21369 7.98855 31.2719 16.2527 2.84217e-014 14.0455 -2.0065 -27.3814 2.22163 14.83 4.0594 22.2558 -0.272799 14.1645 11.5565 9.551 12.0298 0 0 -46.6023 35.1263 6.10843 31.2689 -2.13163e-014 0 -1.28313 -13.9555 0.611387 28.0275 -1.42109e-014 1.42109e-014 31.1425 -14.0727 -0.458018 -3.96464 22.2558 -0.272799 -20.9094 3.6123 -7.94011 -12.0298 1.42109e-014 0 1.21356 32.9868 16.8748 -31.2689 0 0 5.43808 3.79634 -5.92999 -28.0275 -1.42109e-014 0 -16.9941 3.41281 4.45626 10.0325 0 -8.88178e-016 1.76191 12.6858 -3.04052 1.42109e-014 -38.4033 3.55271e-015 -4.41138 15.4464 -6.35314 0 -44.1642 0 3.96118 -13.9811 19.3916 0 -6.52112 15.0487 3.97569e-016 2.21148e-015 -0 -10.0325 1.42109e-014 2.66454e-015 -5.72017 -10.0676 -5.23619 0 -38.4033 0 4.25107 46.2967 -3.12871 0 -44.1642 7.10543e-015 15.6663 -7.47891 2.79172 0 -6.52112 15.0487 -4.41391e-032 1.59028e-015 1.59028e-015 
0 0 0 0 0 -0 25.4701 87.9295 -116.398 -10.1576 2.48361 -93.5832 0 8.22665 0 -1.06232 3.98909 -1.97371 0 24.451 0 12.8833 6.65927 -2.76337 0 24.3506 2.21369 7.97356 31.2223 16.2822 -1.42109e-014 14.0455 -2.0065 -27.5825 2.24896 14.8365 4.0594 22.2558 -0.272799 14.2467 11.6844 9.50396 12.0298 0 7.10543e-015 -46.7652 34.9914 6.17892 31.2689 -7.10543e-015 1.42109e-014 -1.3959 -13.776 0.533508 28.0275 1.42109e-014 -1.42109e-014 31.1495 -13.8938 -0.458403 -3.96464 22.2558 -0.272799 -20.9047 3.51044 -8.03619 -12.0298 0 0 1.08195 32.9334 16.9932 -31.2689 1.42109e-014 1.42109e-014 5.3479 3.72323 -6.07628 -28.0275 0 0 -16.5571 3.36754 4.39877 10.0325 1.42109e-014 -1.77636e-015 1.68944 12.6144 -3.00601 -1.42109e-014 -38.4033 1.77636e-015 -4.38883 15.4353 -6.4605 0 -44.1642 0 4.01175 -13.9077 19.3371 1.42109e-014 -6.52112 15.0487 7.24157e-033 -5.2181e-016 7.95139e-016 -10.0325 0 -8.88178e-016 -5.52353 -9.96476 -5.31261 0 -38.4033 0 4.21641 46.0952 -3.0369 0 -44.1642 7.10543e-015 15.8559 -7.59173 3.28106 0 -6.52112 15.0487 3.18055e-015 3.57812e-015 -1.59028e-015 
0 0 0 0 0 -0 25.4803 87.9396 -116.293 -10.1279 2.43436 -93.4351 0 8.22665 0 -1.15189 3.97998 -2.05557 0 24.451 3.55271e-015 13.1347 6.6834 -2.8659 0 24.3506 2.21369 7.97362 31.1691 16.3046 -1.42109e-014 14.0455 -2.0065 -27.7974 2.27467 14.8355 4.0594 22.2558 -0.272799 14.3053 11.7182 9.47662 12.0298 5.68434e-014 0 -46.979 35.0383 6.33387 31.2689 2.13163e-014 1.42109e-014 -1.34635 -13.6165 0.468586 28.0275 -1.42109e-014 0 30.8128 -13.7622 -0.56422 -3.96464 22.2558 -0.272799 -20.902 3.39994 -8.13617 -12.0298 -1.42109e-014 0 0.975725 32.6804 17.0642 -31.2689 -1.42109e-014 0 5.4091 3.39679 -6.0721 -28.0275 -1.42109e-014 0 -16.8996 3.05772 4.21623 10.0325 -1.42109e-014 -8.88178e-016 1.60904 12.5776 -3.01563 0 -38.4033 -3.55271e-015 -4.36206 15.3939 -6.51896 -1.42109e-014 -44.1642 -3.55271e-015 3.99722 -13.8513 19.2762 1.42109e-014 -6.52112 15.0487 -3.97569e-016 -1.39149e-015 7.95139e-016 -10.0325 0 -1.77636e-015 -5.30016 -9.86748 -5.28822 2.84217e-014 -38.4033 -3.55271e-015 4.18368 45.9346 -2.95417 2.84217e-014 -44.1642 -3.55271e-015 15.8473 -7.61632 3.8342 0 -6.52112 15.0487 9.54166e-015 1.98785e-015 1.59028e-015 
0 0 0 0 0 -0 25.4896 87.9437 -116.19 -10.0969 2.3836 -93.2959 0 8.22665 0 -1.25557 3.98086 -2.12459 0 24.451 0 13.4026 6.68003 -2.95397 0 24.3506 2.21369 7.97763 31.1428 16.3057 0 14.0455 -2.0065 -28.002 2.28771 14.813 4.0594 22.2558 -0.272799 14.3469 11.7381 9.44013 12.0298 0 0 -47.1466 35.0688 6.48073 31.2689 7.10543e-015 0 -1.41169 -13.4906 0.378202 28.0275 1.42109e-014 -1.42109e-014 30.859 -13.6517 -0.617764 -3.96464 22.2558 -0.272799 -20.8962 3.28772 -8.24185 -12.0298 1.42109e-014 0 0.859192 32.416 17.1314 -31.2689 -1.42109e-014 1.42109e-014 5.42465 3.33728 -6.14583 -28.0275 -1.42109e-014 0 -16.756 3.01882 4.14216 10.0325 1.42109e-014 1.77636e-015 1.52175 12.5423 -3.01232 -1.42109e-014 -38.4033 -3.55271e-015 -4.32724 15.3534 -6.58382 0 -44.1642 -3.55271e-015 4.06433 -13.7986 19.2299 -1.42109e-014 -6.52112 15.0487 -8.96575e-033 3.23025e-016 1.59028e-015 -10.0325 0 -2.66454e-015 -5.07429 -9.78151 -5.36509 -2.84217e-014 -38.4033 -3.55271e-015 4.02001 45.7754 -2.79459 2.84217e-014 -44.1642 7.10543e-015 16.1094 -7.61802 4.42197 0 -6.52112 15.0487 0 7.55382e-015 -0 
